<svg xmlns="http://www.w3.org/2000/svg" xmlns:xlink="http://www.w3.org/1999/xlink" version="1.1" id="logo_shop" x="0px" y="0px" width="179.5px" height="66px" viewBox="0 0 179.5 66" enable-background="new 0 0 179.5 66" xml:space="preserve" class="logo"> <g> <g> <path fill="#424343" d="M13.941,5.347H3.385v40.729h7.494V29.521h3.191c2.021,0,3.781-0.194,5.215-0.521 c1.434-0.392,2.736-0.913,3.713-1.629c1.5-1.043,2.607-2.411,3.455-4.237c0.781-1.758,1.172-3.713,1.172-5.799 c0-3.128-0.781-5.67-2.281-7.688c-1.498-2.021-3.648-3.323-6.385-3.847C17.459,5.477,15.766,5.347,13.941,5.347z M14.201,10.949 c2.15,0,3.715,0.587,4.691,1.564c1.043,0.979,1.5,2.672,1.5,4.887c0,2.542-0.586,4.303-1.695,5.475 c-1.172,1.107-2.996,1.695-5.539,1.695h-2.279V10.949H14.201z"></path> <path fill="#424343" d="M43.818,16.479h-0.652c-1.172,0-2.355,0.271-3.334,0.727c-1.043,0.394-2.086,1.043-3.193,1.892V16.49 h-6.582v29.587h6.582V23.658c0.783-0.391,1.5-0.716,2.217-0.911c0.65-0.196,1.434-0.261,2.279-0.261c0.391,0,0.652,0,0.979,0 c0.129,0,0.455,0.063,0.977,0.131L43.818,16.479z"></path> <path fill="#424343" d="M56.014,16.488c-4.17,0-7.363,1.238-9.385,3.649c-2.02,2.478-3.127,6.19-3.127,11.145 c0,4.887,1.107,8.666,3.127,11.076c2.021,2.412,5.215,3.717,9.385,3.717c4.236,0,7.299-1.305,9.449-3.717 c2.086-2.478,3.129-6.189,3.129-11.076c0-4.953-1.043-8.667-3.129-11.145C63.312,17.728,60.25,16.488,56.014,16.488z M56.014,41.383c-3.779,0-5.605-3.39-5.605-10.101c0-6.712,1.826-10.103,5.605-10.103c1.824,0,3.258,0.848,4.236,2.542 c0.912,1.693,1.434,4.171,1.434,7.561c0,3.258-0.521,5.799-1.434,7.492C59.271,40.534,57.838,41.383,56.014,41.383z"></path> <path fill="#424343" d="M69.35,16.488v4.365h3.389v25.222h6.518V20.854h6.191v-4.365h-6.191v-2.085 c0-1.433,0.326-2.476,0.848-3.128c0.65-0.651,1.562-0.979,2.801-0.979c0.393,0,0.783,0.065,1.109,0.132 c0.326,0,0.848,0.064,1.434,0.261l1.174-4.692c-1.891-0.392-3.717-0.587-5.475-0.587c-2.803,0-4.953,0.717-6.387,2.086 c-1.369,1.305-2.086,3.323-2.086,6.125v2.867H69.35L69.35,16.488z"></path> <path fill="#424343" d="M94.613,16.488h-6.516v29.587h6.516V16.488z"></path> <path fill="#424343" d="M107.17,5.41h-6.518v40.665h6.518V5.41z"></path> <g> <g> <g> <path fill="#F37A3C" d="M174.271,11.771c-0.523-1.238-1.24-2.347-2.217-3.259c-0.912-0.979-2.087-1.694-3.322-2.28 c-1.24-0.522-2.607-0.783-3.978-0.783H123.57c-1.369,0-2.803,0.261-4.041,0.783c-1.238,0.586-2.346,1.303-3.322,2.28 c-0.912,0.912-1.629,2.021-2.217,3.259c-0.521,1.303-0.781,2.671-0.781,4.039v24.57c0,1.173,0.131,2.279,0.521,3.322 c0.39,1.043,0.848,2.021,1.5,2.867c0.649,0.848,1.367,1.631,2.278,2.283c0.849,0.65,1.824,1.107,2.867,1.434v8.992l8.863-8.471 h35.516c1.369,0,2.736-0.326,3.978-0.848c1.235-0.521,2.41-1.238,3.322-2.218c0.977-0.979,1.692-2.021,2.217-3.323 c0.586-1.238,0.778-2.607,0.846-4.04V15.81C175.117,14.442,174.857,13.074,174.271,11.771z"></path> </g> </g> <path fill="#F15D24" d="M164.756,50.811c1.369,0,2.736-0.326,3.977-0.848c1.236-0.521,2.41-1.238,3.322-2.218 c0.978-0.979,1.693-2.021,2.217-3.323c0.586-1.238,0.779-2.607,0.847-4.04v-14.36l-8.537-9.445l-16.029,0.45l-1.016,11.979 l-11.234-12.43l-15.389-0.679l-1.925,22.671l11.064,12.242L164.756,50.811L164.756,50.811z"></path> <g> <path class="white_text" fill="#FFFFFF" d="M129.984,13.335c-1.889,0-3.584,0.325-5.148,0.912c-1.498,0.651-2.801,1.629-3.844,2.867 c-1.041,1.172-1.889,2.736-2.475,4.432c-0.521,1.824-0.849,3.779-0.849,5.994c0,2.412,0.326,4.563,0.978,6.452 s1.563,3.454,2.735,4.757c1.173,1.303,2.736,2.281,4.433,2.933c1.76,0.719,3.778,1.043,5.996,1.043 c1.498,0,2.998-0.129,4.432-0.392c1.432-0.194,2.932-0.586,4.561-1.106l-1.174-4.759c-1.303,0.457-2.41,0.781-3.387,0.979 c-0.979,0.195-1.955,0.26-2.803,0.26c-2.541,0-4.496-0.649-5.996-1.955c-1.435-1.303-2.281-3.127-2.478-5.539h16.617 c0.065-1.629,0.131-2.541,0.131-2.735c0-4.496-1.041-8.017-3.062-10.492C136.633,14.573,133.764,13.335,129.984,13.335z M135.264,25.979h-10.947c0-2.479,0.521-4.497,1.498-5.865c0.979-1.369,2.412-2.086,4.17-2.086c1.695,0,2.998,0.652,3.978,2.021 c0.849,1.305,1.304,3.259,1.304,5.669v0.262H135.264z"></path> <path class="white_text" fill="#FFFFFF" d="M167,16.983c-2.086-2.41-5.213-3.648-9.449-3.648s-7.299,1.238-9.385,3.648 c-2.02,2.477-3.127,6.189-3.127,11.144c0,4.889,1.107,8.667,3.127,11.079c2.086,2.41,5.148,3.714,9.385,3.714 c4.237,0,7.363-1.304,9.449-3.714c2.086-2.477,3.129-6.19,3.129-11.079C170.129,23.174,169.086,19.46,167,16.983z M161.787,35.62c-0.979,1.762-2.412,2.607-4.236,2.607c-3.715,0-5.604-3.39-5.604-10.102s1.889-10.101,5.604-10.101 c1.824,0,3.258,0.847,4.236,2.541c0.912,1.694,1.434,4.172,1.434,7.56C163.221,31.387,162.699,33.928,161.787,35.62z"></path> </g> </g> <circle fill="#424343" cx="91.346" cy="9.18" r="3.77"></circle> </g> <g> <path fill="#F37A3C" d="M6.146,51.581h0.845v7.62h1.526v1.328H3.813v-1.328h1.526v-5.782l-1.514,0.521L3.59,53.12L6.146,51.581z"></path> <path fill="#F37A3C" d="M10.105,56.087c0-1.522,0.242-2.68,0.726-3.47s1.198-1.185,2.141-1.185c0.943,0,1.657,0.393,2.141,1.179 c0.484,0.786,0.727,1.937,0.727,3.45s-0.242,2.664-0.727,3.45c-0.483,0.786-1.197,1.179-2.141,1.179 c-0.935,0-1.646-0.391-2.134-1.172C10.35,58.737,10.105,57.592,10.105,56.087z M11.967,53.754 c-0.066,0.321-0.111,0.672-0.137,1.048c-0.024,0.376-0.037,0.796-0.037,1.26c0,1.514,0.137,2.519,0.41,3.015 c0.156,0.308,0.413,0.459,0.769,0.459c0.538,0,0.873-0.389,1.006-1.167c0.065-0.322,0.111-0.672,0.136-1.049 c0.025-0.376,0.038-0.796,0.038-1.259c0-0.753-0.033-1.382-0.1-1.886c-0.066-0.505-0.17-0.881-0.311-1.129 c-0.157-0.307-0.413-0.459-0.77-0.459C12.435,52.587,12.1,52.976,11.967,53.754z"></path> <path fill="#F37A3C" d="M17.08,56.087c0-1.522,0.241-2.68,0.726-3.47c0.483-0.79,1.197-1.185,2.141-1.185 c0.944,0,1.656,0.393,2.141,1.179c0.484,0.786,0.726,1.937,0.726,3.45s-0.241,2.664-0.726,3.45 c-0.484,0.786-1.197,1.179-2.141,1.179c-0.936,0-1.646-0.391-2.135-1.172S17.08,57.592,17.08,56.087z M18.941,53.754 c-0.066,0.321-0.112,0.672-0.137,1.048c-0.025,0.376-0.037,0.796-0.037,1.26c0,1.514,0.136,2.519,0.409,3.015 c0.157,0.308,0.414,0.459,0.77,0.459c0.538,0,0.873-0.389,1.005-1.167c0.066-0.322,0.112-0.672,0.137-1.049 s0.037-0.796,0.037-1.259c0-0.753-0.033-1.382-0.1-1.886c-0.065-0.505-0.169-0.881-0.31-1.129 c-0.157-0.307-0.414-0.459-0.77-0.459C19.408,52.587,19.073,52.976,18.941,53.754z"></path> <path fill="#F37A3C" d="M24.041,53.716c0-0.729,0.187-1.292,0.559-1.694c0.372-0.401,0.91-0.602,1.613-0.602 c0.687,0,1.218,0.2,1.595,0.602c0.376,0.401,0.564,0.966,0.564,1.694c0,0.735-0.188,1.303-0.564,1.699 c-0.377,0.397-0.908,0.597-1.595,0.597c-0.703,0-1.241-0.199-1.613-0.597C24.228,55.019,24.041,54.452,24.041,53.716z M31.71,51.581h0.906l-7.495,8.947H24.19L31.71,51.581z M26.213,52.352c-0.281,0-0.501,0.122-0.657,0.366 c-0.157,0.244-0.236,0.577-0.236,0.999s0.079,0.755,0.236,0.999c0.156,0.243,0.376,0.365,0.657,0.365 c0.265,0,0.478-0.122,0.64-0.365c0.161-0.244,0.241-0.577,0.241-0.999s-0.08-0.755-0.241-0.999 C26.69,52.474,26.478,52.352,26.213,52.352z M28.459,58.419c0-0.729,0.188-1.292,0.564-1.694c0.377-0.401,0.908-0.603,1.595-0.603 c0.695,0,1.229,0.201,1.601,0.603c0.373,0.4,0.559,0.966,0.559,1.694s-0.186,1.293-0.559,1.693 c-0.372,0.401-0.905,0.603-1.601,0.603c-0.687,0-1.218-0.2-1.595-0.603C28.647,59.712,28.459,59.147,28.459,58.419z M30.618,57.066c-0.265,0-0.476,0.12-0.633,0.36c-0.157,0.239-0.235,0.57-0.235,0.993c0,0.422,0.078,0.753,0.235,0.992 c0.157,0.24,0.368,0.36,0.633,0.36c0.273,0,0.488-0.12,0.646-0.36c0.157-0.239,0.235-0.57,0.235-0.992 c0-0.423-0.078-0.752-0.235-0.993C31.106,57.187,30.892,57.066,30.618,57.066z"></path> <path fill="#F37A3C" d="M38.163,51.581h4.902v1.117l-3.239,0.162v2.494h2.805v1.129h-2.805v2.73l3.301,0.16v1.154h-4.964V51.581z"></path> <path fill="#F37A3C" d="M44.157,56.743h3.264v1.143h-3.264V56.743z"></path> <path fill="#F37A3C" d="M53.451,52.946c-0.446-0.189-0.877-0.286-1.29-0.286c-0.646,0-1.123,0.284-1.434,0.851 s-0.466,1.458-0.466,2.674c0,1.117,0.157,1.944,0.472,2.481c0.315,0.538,0.795,0.808,1.439,0.808c0.24,0,0.482-0.035,0.727-0.105 c0.245-0.069,0.507-0.176,0.788-0.315l0.198,1.167c-0.72,0.306-1.39,0.459-2.011,0.459c-1.084,0-1.915-0.394-2.494-1.179 c-0.579-0.786-0.868-1.916-0.868-3.389c0-0.735,0.074-1.394,0.223-1.973s0.366-1.067,0.652-1.464 c0.285-0.397,0.637-0.699,1.055-0.906c0.417-0.207,0.891-0.31,1.421-0.31c0.298,0,0.591,0.03,0.881,0.093 c0.289,0.062,0.604,0.154,0.943,0.278L53.451,52.946z"></path> <path fill="#F37A3C" d="M54.829,56.062c0-1.481,0.285-2.619,0.855-3.413c0.571-0.794,1.382-1.191,2.433-1.191 c1.059,0,1.874,0.397,2.444,1.191c0.571,0.794,0.856,1.932,0.856,3.413s-0.285,2.621-0.856,3.418 c-0.57,0.799-1.386,1.198-2.444,1.198c-1.051,0-1.861-0.399-2.433-1.198C55.114,58.683,54.829,57.543,54.829,56.062z M58.117,52.648c-0.505,0-0.892,0.293-1.16,0.881s-0.403,1.433-0.403,2.532c0,1.108,0.135,1.955,0.403,2.538 s0.655,0.875,1.16,0.875c0.513,0,0.906-0.292,1.179-0.875s0.41-1.429,0.41-2.538c0-1.1-0.137-1.944-0.41-2.532 C59.023,52.942,58.63,52.648,58.117,52.648z"></path> <path fill="#F37A3C" d="M63.392,51.581h1.936l1.439,5.548c0.017,0.065,0.035,0.156,0.056,0.272 c0.021,0.116,0.04,0.244,0.057,0.385c0.024,0.142,0.043,0.266,0.056,0.373c0.013,0.108,0.026,0.256,0.043,0.447 c0.009-0.091,0.015-0.169,0.019-0.236c0.005-0.065,0.009-0.13,0.013-0.191c0.004-0.063,0.011-0.122,0.019-0.181 c0.008-0.058,0.017-0.128,0.025-0.211c0.032-0.148,0.058-0.278,0.074-0.391s0.033-0.201,0.05-0.267l1.439-5.548h1.936l0.943,8.947 h-1.626l-0.546-5.943c-0.017-0.092-0.027-0.268-0.031-0.527s-0.006-0.536-0.006-0.825l-0.037,0.236l-0.074,0.41 c-0.033,0.215-0.059,0.378-0.075,0.489c-0.017,0.111-0.029,0.185-0.037,0.218l-1.464,5.943h-1.254l-1.452-5.943 c-0.008-0.025-0.021-0.096-0.037-0.212c-0.017-0.115-0.045-0.28-0.087-0.495l-0.062-0.323l-0.05-0.323c0,0.132,0,0.27,0,0.41 s-0.002,0.272-0.006,0.396c-0.005,0.124-0.009,0.236-0.013,0.335c-0.004,0.101-0.011,0.171-0.019,0.212l-0.559,5.943h-1.613 L63.392,51.581z"></path> <path fill="#F37A3C" d="M73.331,51.581h1.937l1.439,5.548c0.017,0.065,0.035,0.156,0.056,0.272s0.039,0.244,0.056,0.385 c0.025,0.142,0.044,0.266,0.056,0.373c0.013,0.107,0.027,0.256,0.044,0.447c0.008-0.091,0.014-0.169,0.019-0.236 c0.004-0.065,0.008-0.13,0.013-0.191c0.004-0.063,0.01-0.122,0.019-0.181c0.008-0.058,0.017-0.128,0.024-0.211 c0.033-0.148,0.058-0.278,0.074-0.391s0.033-0.201,0.05-0.267l1.439-5.548h1.937l0.942,8.947h-1.625l-0.547-5.943 c-0.017-0.092-0.026-0.268-0.03-0.527c-0.005-0.261-0.007-0.536-0.007-0.825L79.19,53.47l-0.074,0.41 c-0.033,0.215-0.058,0.378-0.074,0.489c-0.017,0.111-0.029,0.185-0.037,0.218L77.54,60.53h-1.253l-1.452-5.943 c-0.009-0.025-0.021-0.096-0.037-0.212c-0.017-0.115-0.046-0.28-0.087-0.495l-0.062-0.323L74.6,53.233c0,0.132,0,0.27,0,0.41 s-0.003,0.272-0.007,0.396c-0.004,0.124-0.008,0.236-0.013,0.335c-0.004,0.101-0.01,0.171-0.019,0.212l-0.558,5.943H72.39 L73.331,51.581z"></path> <path fill="#F37A3C" d="M82.688,51.581h4.901v1.117L84.35,52.86v2.494h2.805v1.129H84.35v2.73l3.301,0.16v1.154h-4.963V51.581z"></path> <path fill="#F37A3C" d="M88.967,51.581h2.693c0.9,0,1.59,0.197,2.066,0.59c0.476,0.393,0.713,0.962,0.713,1.707 c0,0.339-0.057,0.646-0.168,0.924c-0.111,0.276-0.27,0.515-0.472,0.713c-0.202,0.199-0.448,0.352-0.737,0.459 c-0.291,0.106-0.612,0.161-0.969,0.161h-0.05l3.228,4.393h-1.888l-2.768-4.07v4.07h-1.65L88.967,51.581L88.967,51.581z M90.617,55.403h0.496c0.555-0.008,0.965-0.124,1.229-0.348s0.396-0.575,0.396-1.055c0-0.447-0.114-0.771-0.346-0.975 c-0.232-0.203-0.584-0.304-1.057-0.304h-0.72L90.617,55.403L90.617,55.403z"></path> <path fill="#F37A3C" d="M100.619,52.946c-0.446-0.189-0.877-0.286-1.29-0.286c-0.646,0-1.123,0.284-1.435,0.851 c-0.31,0.566-0.465,1.458-0.465,2.674c0,1.117,0.156,1.944,0.473,2.481c0.313,0.538,0.793,0.808,1.438,0.808 c0.239,0,0.481-0.035,0.726-0.105c0.246-0.069,0.508-0.176,0.789-0.315l0.197,1.167c-0.72,0.306-1.39,0.459-2.01,0.459 c-1.084,0-1.916-0.394-2.495-1.179c-0.579-0.786-0.868-1.916-0.868-3.389c0-0.735,0.074-1.394,0.225-1.973 c0.147-0.579,0.365-1.067,0.65-1.464c0.285-0.397,0.637-0.699,1.055-0.906s0.893-0.31,1.422-0.31c0.298,0,0.592,0.03,0.881,0.093 c0.29,0.062,0.604,0.154,0.943,0.278L100.619,52.946z"></path> <path fill="#F37A3C" d="M102.232,51.581h4.901v1.117l-3.239,0.162v2.494h2.806v1.129h-2.806v2.73l3.301,0.16v1.154h-4.963V51.581 L102.232,51.581z"></path> </g> </g> </svg>
